Coordinates
version=1
nRows=24
nColumns=24
inDegrees=yes

Units are S.I. units (second, meters, Newtons, ...)
Angles are in degrees.

endheader
time	pelvis_tilt	pelvis_list	pelvis_rotation	pelvis_tx	pelvis_ty	pelvis_tz	hip_flexion_r	hip_adduction_r	hip_rotation_r	knee_angle_r	ankle_angle_r	subtalar_angle_r	mtp_angle_r	hip_flexion_l	hip_adduction_l	hip_rotation_l	knee_angle_l	ankle_angle_l	subtalar_angle_l	mtp_angle_l	lumbar_extension	lumbar_bending	lumbar_rotation
      4.57000000	     -2.06234264	     -6.28838520	     -8.82357202	      1.60453091	      0.68453419	     -0.29631739	    -23.38751855	      7.60405832	     22.10783327	     -5.05254456	     12.42747664	     -1.86555579	      0.00000000	     17.29223983	     -5.41315250	     13.93363905	      7.16096602	     -3.38822901	    -24.83062044	      0.00000000	    -16.84707345	      4.63955996	      6.82207574
      4.58000000	     -1.54509207	     -5.33262181	     -8.53646005	      1.62009838	      0.68573177	     -0.29766556	    -23.68008006	      6.63928853	     19.83942051	     -7.30546515	     11.45120007	      0.44736774	      0.00000000	     16.71808636	     -3.74123386	     14.74107959	      5.32391909	     -5.07316055	    -26.64637400	      0.00000000	    -16.74313038	      3.47780142	      6.34714744
      4.59000000	     -0.97326993	     -4.23103830	     -8.24324123	      1.63583158	      0.68732985	     -0.29900475	    -23.96521871	      5.47481381	     17.73443782	     -9.52489348	      9.91104325	      2.42209330	      0.00000000	     16.05502436	     -1.92197831	     15.24724076	      3.44668462	     -6.52329878	    -27.83103331	      0.00000000	    -16.63506272	      2.13043653	      5.84044091
      4.60000000	     -0.37094337	     -3.09442220	     -7.98933621	      1.65170544	      0.68930471	     -0.30032413	    -24.27617682	      4.20386786	     15.94204323	    -11.59998825	      7.81991808	      4.09570290	      0.00000000	     15.25157681	     -0.11258588	     15.51150575	      1.68007883	     -7.61768129	    -28.44475366	      0.00000000	    -16.50692205	      0.75049230	      5.44308110
      4.61000000	      0.04642654	     -1.97876188	     -7.82095399	      1.66770224	      0.69140783	     -0.30145972	    -24.43833569	      2.94068187	     14.91546589	    -13.42599209	      5.26377199	      5.13595907	      0.00000000	     14.49301268	      1.56060143	     15.60503570	      0.10476071	     -8.26182835	    -28.46380739	      0.00000000	    -16.07881949	     -0.58952696	      5.13468329
      4.62000000	      0.63240932	     -1.05441131	     -7.68032254	      1.68344100	      0.69394825	     -0.30262194	    -24.66637428	      1.82612722	     13.83622483	    -15.21570174	      2.76813997	      6.30395291	      0.00000000	     13.37552665	      2.99425182	     15.78636197	     -1.20528705	     -8.47657644	    -28.25404165	      0.00000000	    -15.95707710	     -1.72185852	      4.96666684
      4.63000000	      1.21127346	     -0.40694721	     -7.73119110	      1.69898084	      0.69672730	     -0.30356794	    -24.83117303	      0.92859601	     13.29278351	    -16.84691392	      0.45637247	      7.18341755	      0.00000000	     12.00264636	      4.03900051	     15.95750143	     -2.14162485	     -8.21333795	    -27.88902286	      0.00000000	    -15.86060013	     -2.51273905	      5.05270851
      4.64000000	      1.41510877	     -0.06428599	     -7.86797097	      1.71416929	      0.69928489	     -0.30436324	    -24.48419051	      0.41229454	     13.24260057	    -18.40697533	     -1.33262069	      7.57345724	      0.00000000	     10.83062089	      4.66209237	     16.39039660	     -2.77816744	     -7.83270623	    -27.80389260	      0.00000000	    -15.37650228	     -2.89151316	      5.34449221
      4.65000000	      1.65672986	      0.03424244	     -8.14219964	      1.72901547	      0.70198143	     -0.30505724	    -24.03672121	      0.08594894	     13.29551579	    -19.91561354	     -2.17128772	      8.01059336	      0.00000000	      9.38708520	      5.00642061	     16.71864173	     -3.02523851	     -7.29091978	    -27.82001392	      0.00000000	    -15.01788853	     -2.94704117	      5.67335187
      4.66000000	      1.70288480	     -0.13883268	     -8.44262753	      1.74348462	      0.70449352	     -0.30573140	    -23.25831890	      0.06954950	     13.33053064	    -21.34721029	     -2.08272423	      8.17376706	      0.00000000	      7.97628514	      5.03430805	     17.21542042	     -2.97531790	     -6.77067609	    -28.22872088	      0.00000000	    -14.50721749	     -2.62023189	      6.01813032
      4.67000000	      1.51085050	     -0.55569249	     -8.79217117	      1.75754290	      0.70674297	     -0.30643117	    -22.08052987	      0.30488273	     13.20085009	    -22.72317464	     -1.01404885	      8.23334850	      0.00000000	      6.67509634	      4.76824852	     17.79521074	     -2.65587329	     -6.50655834	    -29.17440697	      0.00000000	    -13.80609946	     -1.90028767	      6.36838989
      4.68000000	      1.01970653	     -1.07964993	     -9.02694989	      1.77134877	      0.70856189	     -0.30726334	    -20.51352619	      0.72200798	     12.65723560	    -23.91436115	      0.75339348	      7.96332304	      0.00000000	      5.63818040	      4.35327631	     18.66046410	     -2.21584474	     -6.53219739	    -30.64145123	      0.00000000	    -12.78203279	     -0.96175526	      6.61195390
      4.69000000	      0.53147921	     -1.75281417	     -9.12714177	      1.78472004	      0.71033674	     -0.30821447	    -18.91969875	      1.31346359	     11.75907919	    -24.82541973	      2.87139674	      7.34333598	      0.00000000	      4.60340423	      3.77996207	     19.40586800	     -1.73067662	     -6.43550222	    -31.79839237	      0.00000000	    -11.91405472	      0.19847097	      6.57425600
      4.70000000	      0.08711035	     -2.47861473	     -9.09493224	      1.79770801	      0.71207299	     -0.30924400	    -17.34211145	      1.96866022	     10.51321710	    -25.45589581	      5.11759050	      6.36449520	      0.00000000	      3.56748357	      3.14524408	     20.01697143	     -1.25400938	     -6.19808980	    -32.54514269	      0.00000000	    -11.22508657	      1.41203433	      6.29611567
      4.71000000	     -0.39273007	     -3.11508113	     -8.93187411	      1.81047111	      0.71359859	     -0.31036221	    -15.66235452	      2.54016484	      8.77073243	    -25.86430402	      7.30414347	      4.90222243	      0.00000000	      2.66093016	      2.59569520	     20.55111902	     -0.85176369	     -5.97253535	    -33.09747539	      0.00000000	    -10.51789637	      2.51345421	      5.91711666
      4.72000000	     -0.84781674	     -3.69429100	     -8.70004536	      1.82273189	      0.71500113	     -0.31150206	    -13.86073737	      3.05284195	      6.80361817	    -26.22226458	      9.34521829	      3.14300630	      0.00000000	      1.82990009	      2.08610168	     20.98709874	     -0.51256178	     -5.74144682	    -33.35578237	      0.00000000	     -9.99224128	      3.50594280	      5.39640698
      4.73000000	     -1.06602859	     -4.19494885	     -8.28093803	      1.83477011	      0.71641537	     -0.31267771	    -12.27171465	      3.49740524	      4.65503452	    -26.40569611	     11.00804971	      0.87608862	      0.00000000	      0.79463473	      1.65590089	     21.45275080	     -0.16440778	     -5.37231052	    -33.24935770	      0.00000000	     -9.80384067	      4.31607696	      4.71137305
      4.74000000	     -1.19676293	     -4.53926119	     -7.79389795	      1.84629364	      0.71768355	     -0.31387187	    -10.57869853	      3.79695651	      2.49559372	    -26.66767819	     12.35197747	     -1.81555518	      0.00000000	     -0.19804845	      1.39937717	     21.82312608	      0.08386208	     -5.08254972	    -33.03918825	      0.00000000	     -9.86935505	      4.87541152	      3.92711853
      4.75000000	     -1.29776134	     -4.75667140	     -7.22372676	      1.85749752	      0.71870487	     -0.31506638	     -8.76044115	      3.99510093	      0.43966427	    -26.99998013	     13.37373067	     -4.72463407	      0.00000000	     -1.16512640	      1.25399317	     22.18650660	      0.34172661	     -4.82153282	    -32.71926074	      0.00000000	    -10.02600482	      5.24022228	      3.10235834
      4.76000000	     -1.39319546	     -4.88896942	     -6.59219787	      1.86833419	      0.71948586	     -0.31619903	     -6.80359838	      4.15863249	     -1.31962473	    -27.39435252	     14.02899440	     -7.76414803	      0.00000000	     -2.09537562	      1.16308396	     22.56254989	      0.62224059	     -4.56435067	    -32.26506291	      0.00000000	    -10.27853335	      5.45979808	      2.24323749
      4.77000000	     -1.42518104	     -4.90069043	     -5.99717003	      1.87885409	      0.72005372	     -0.31730596	     -4.78787353	      4.22155616	     -2.63338346	    -27.81693578	     14.47422948	    -10.73130685	      0.00000000	     -3.02710750	      1.23146260	     22.76063516	      0.84888370	     -4.30612647	    -31.87884601	      0.00000000	    -10.68279365	      5.52690183	      1.41714241
      4.78000000	     -1.49231214	     -4.91679452	     -5.39170148	      1.88903377	      0.72038602	     -0.31828243	     -2.64454438	      4.37411584	     -3.47368401	    -28.21519173	     14.65244362	    -13.44494198	      0.00000000	     -3.89227000	      1.26620585	     22.92473327	      1.07549493	     -3.97224306	    -31.38752595	      0.00000000	    -11.13184516	      5.56561361	      0.67278989
      4.79000000	     -1.52835044	     -4.84011178	     -4.80509452	      1.89903012	      0.72054176	     -0.31916232	     -0.48578742	      4.49491880	     -3.81890893	    -28.52571773	     14.85677209	    -15.54178627	      0.00000000	     -4.77013052	      1.40579764	     22.97515832	      1.30078745	     -3.69956694	    -30.93999247	      0.00000000	    -11.64968297	      5.46804583	     -0.12735171
      4.80000000	     -1.59215758	     -4.75732528	     -4.23199265	      1.90885689	      0.72048805	     -0.31996004	      1.71434429	      4.69061539	     -3.71760198	    -28.68185047	     15.12595508	    -16.91089421	      0.00000000	     -5.59175693	      1.54896501	     22.98814150	      1.48615488	     -3.33813685	    -30.49660913	      0.00000000	    -12.17050110	      5.36929763	     -0.90084624
